HIERARCHY
ROOT Pelvis
{
	OFFSET 0.000000 0.000000 0.000000
	CHANNELS 6 Xposition Yposition Zposition Xrotation Yrotation Zrotation
	JOINT LeftUpLeg_virtual
	{
		OFFSET 0.000000 0.000000 0.000000
		CHANNELS 3 Xrotation Yrotation Zrotation
		JOINT LeftUpLeg
		{
			OFFSET 18.735201 -5.666702 -4.541200
			CHANNELS 3 Xrotation Yrotation Zrotation
			JOINT LeftLeg
			{
				OFFSET -0.021200 -31.938179 0.493100
				CHANNELS 3 Xrotation Yrotation Zrotation
				JOINT LeftFoot
				{
					OFFSET 0.021200 -31.938179 -4.336299
					CHANNELS 3 Xrotation Yrotation Zrotation
					JOINT LeftToeBase
					{
						OFFSET 0.943001 -26.722000 15.023500
						CHANNELS 3 Xrotation Yrotation Zrotation
						End Site
						{
							OFFSET 0 0 0
						}
					}
				}
			}
		}
	}
	JOINT RightUpLeg_virtual
	{
		OFFSET 0.000000 0.000000 0.000000
		CHANNELS 3 Xrotation Yrotation Zrotation
		JOINT RightUpLeg
		{
			OFFSET -18.735201 -5.666702 -4.541200
			CHANNELS 3 Xrotation Yrotation Zrotation
			JOINT RightLeg
			{
				OFFSET 0.018946 -31.938133 0.493100
				CHANNELS 3 Xrotation Yrotation Zrotation
				JOINT RightFoot
				{
					OFFSET -0.018946 -31.938126 -4.336299
					CHANNELS 3 Xrotation Yrotation Zrotation
					JOINT RightToeBase
					{
						OFFSET -0.943001 -26.722004 15.023500
						CHANNELS 3 Xrotation Yrotation Zrotation
						End Site
						{
							OFFSET 0 0 0
						}
					}
				}
			}
		}
	}
	JOINT Hips_virtual
	{
		OFFSET 0.000000 0.000000 0.000000
		CHANNELS 3 Xrotation Yrotation Zrotation
		JOINT Hips
		{
			OFFSET -0.000000 -0.000000 -0.000000
			CHANNELS 3 Xrotation Yrotation Zrotation
			JOINT Spine
			{
				OFFSET 0.000000 10.199997 -0.299500
				CHANNELS 3 Xrotation Yrotation Zrotation
				JOINT Spine1
				{
					OFFSET 0.000000 11.900002 -1.516600
					CHANNELS 3 Xrotation Yrotation Zrotation
					JOINT Spine2
					{
						OFFSET 0.000000 13.600006 -2.842500
						CHANNELS 3 Xrotation Yrotation Zrotation
						JOINT Neck_virtual
						{
							OFFSET 0.000000 0.000000 0.000000
							CHANNELS 3 Xrotation Yrotation Zrotation
							JOINT Neck
							{
								OFFSET 0.000000 9.624100 -2.890100
								CHANNELS 3 Xrotation Yrotation Zrotation
								JOINT Head
								{
									OFFSET 0.000000 14.068802 -1.351900
									CHANNELS 3 Xrotation Yrotation Zrotation
									End Site
									{
										OFFSET 0 0 0
									}
								}
							}
						}
						JOINT LeftShoulder_virtual
						{
							OFFSET 0.000000 0.000000 0.000000
							CHANNELS 3 Xrotation Yrotation Zrotation
							JOINT LeftShoulder
							{
								OFFSET 15.263000 10.923401 -0.547700
								CHANNELS 3 Xrotation Yrotation Zrotation
								JOINT LeftArm
								{
									OFFSET 25.438599 -2.830597 -13.032500
									CHANNELS 3 Xrotation Yrotation Zrotation
									JOINT LeftForeArm
									{
										OFFSET 29.960503 0.000000 0.000000
										CHANNELS 3 Xrotation Yrotation Zrotation
										JOINT LeftHand
										{
											OFFSET 27.849251 0.000000 0.000000
											CHANNELS 3 Xrotation Yrotation Zrotation
											End Site
											{
												OFFSET 0 0 0
											}
										}
									}
								}
							}
						}
						JOINT RightShoulder_virtual
						{
							OFFSET 0.000000 0.000000 0.000000
							CHANNELS 3 Xrotation Yrotation Zrotation
							JOINT RightShoulder
							{
								OFFSET -15.263000 10.923401 -0.547700
								CHANNELS 3 Xrotation Yrotation Zrotation
								JOINT RightArm
								{
									OFFSET -25.438599 -2.830597 -13.032500
									CHANNELS 3 Xrotation Yrotation Zrotation
									JOINT RightForeArm
									{
										OFFSET -29.960503 0.000000 0.000000
										CHANNELS 3 Xrotation Yrotation Zrotation
										JOINT RightHand
										{
											OFFSET -27.849251 0.000000 0.000000
											CHANNELS 3 Xrotation Yrotation Zrotation
											End Site
											{
												OFFSET 0 0 0
											}
										}
									}
								}
							}
						}
					}
				}
			}
		}
	}
}
MOTION
Frames: 5
Frame Time: 0.03333333
-3.916342 83.270355 2.332136 0.000000 0.000000 0.000000 3.004777 -58.203245 6.441833 -38.301843 6.311069 29.650555 47.035790 -9.822859 -10.645410 -10.049958 -1.879521 -11.956709 0.000000 0.000000 0.000000 3.004777 -58.203245 6.441833 -34.545741 -3.812530 -30.706020 55.038972 4.468124 -7.825150 -22.928404 0.222264 25.857687 0.000000 0.000000 0.000000 3.004777 -58.203245 6.441833 0.000000 0.000000 0.000000 11.191379 0.081089 -2.661025 8.434584 0.027705 -5.592322 0.000000 0.000000 0.000000 8.457050 0.027864 -5.591870 -3.775665 5.323473 1.581315 0.000000 0.000000 0.000000 8.457050 0.027864 -5.591870 -6.221667 -11.503861 -4.023831 -23.062171 9.568537 -36.639607 0.046108 -43.169108 -0.011155 0.000000 0.000000 0.000000 8.457050 0.027864 -5.591870 -5.488232 10.658263 2.466534 -41.473800 -26.755596 30.079067 -155.044529 68.137011 156.691534 0.000000 0.000000 0.000000 
-3.938589 83.263176 2.376820 0.000000 0.000000 0.000000 3.070346 -58.246508 6.475391 -38.383389 6.199930 29.647577 47.233562 -9.761811 -10.601242 -10.034062 -1.867260 -12.037820 0.000000 0.000000 0.000000 3.070346 -58.246508 6.475391 -34.541291 -3.674596 -30.608345 55.042012 4.365287 -7.897305 -22.811688 0.201111 26.011280 0.000000 0.000000 0.000000 3.070346 -58.246508 6.475391 0.000000 -0.000001 0.000000 11.114160 0.097339 -2.637970 8.281114 0.065574 -5.543477 0.000000 0.000000 0.000000 8.303559 0.065721 -5.543011 -3.739355 5.268910 1.573270 0.000000 0.000000 0.000000 8.303559 0.065721 -5.543011 -5.888012 -11.348860 -4.111616 -23.088826 9.805522 -36.732074 -0.223608 -43.320348 -0.178079 0.000000 0.000000 0.000000 8.303559 0.065721 -5.543011 -5.146257 10.690686 2.467580 -41.573750 -27.076236 29.890066 -152.072181 67.361703 153.719964 0.000000 0.000000 0.000000 
-3.960620 83.254120 2.421011 0.000000 0.000000 0.000000 3.135975 -58.289661 6.509156 -38.448808 6.106657 29.622752 47.424035 -9.684339 -10.554575 -10.059061 -1.860643 -12.056476 0.000000 0.000000 0.000000 3.135975 -58.289661 6.509156 -34.523659 -3.555508 -30.494452 55.035844 4.240900 -7.970333 -22.731763 0.186348 26.113072 0.000000 0.000000 0.000000 3.135975 -58.289661 6.509156 0.000000 -0.000002 0.000000 11.104967 0.110719 -2.625000 8.263423 0.094341 -5.514617 0.000000 0.000000 0.000000 8.285901 0.094477 -5.514153 -3.772316 5.212041 1.560805 0.000000 0.000000 0.000000 8.285901 0.094477 -5.514153 -5.880239 -11.203430 -4.136710 -23.070912 10.188963 -36.902549 -0.778786 -43.644038 -0.618941 0.000000 0.000000 0.000000 8.285901 0.094477 -5.514153 -5.152149 10.691583 2.515983 -41.675328 -27.395484 29.700357 -149.245057 66.526179 150.903645 0.000000 0.000000 0.000000 
-3.981855 83.225815 2.472370 0.000000 0.000000 0.000000 3.243428 -58.327070 6.587475 -38.569166 5.974454 29.571967 47.691987 -9.588799 -10.492466 -10.093983 -1.848996 -12.081322 0.000000 0.000000 0.000000 3.243428 -58.327070 6.587475 -34.555068 -3.378511 -30.383277 55.100413 4.097775 -8.052897 -22.646307 0.164613 26.233204 0.000000 0.000000 0.000000 3.243428 -58.327070 6.587475 0.000000 0.000001 0.000000 11.091253 0.127905 -2.610208 8.236896 0.130303 -5.482829 0.000000 0.000000 0.000000 8.259357 0.130469 -5.482375 -3.813608 5.132779 1.542345 0.000000 0.000000 0.000000 8.259357 0.130469 -5.482375 -5.870534 -11.061416 -4.171692 -22.987242 10.659093 -37.048425 -1.551475 -44.072100 -1.371608 0.000000 0.000000 0.000000 8.259357 0.130469 -5.482375 -5.178391 10.652660 2.668579 -41.781985 -27.790455 29.400754 -144.887259 65.176602 146.548607 0.000000 0.000000 0.000000 
-4.003000 83.183754 2.529596 0.000000 0.000000 0.000000 3.379491 -58.364547 6.698382 -38.730748 5.811503 29.498371 48.024030 -9.471955 -10.418689 -10.129870 -1.834342 -12.110971 0.000000 0.000000 0.000000 3.379491 -58.364547 6.698382 -34.628120 -3.148840 -30.268332 55.225044 3.935563 -8.145924 -22.546502 0.139553 26.367274 0.000000 0.000000 0.000000 3.379491 -58.364547 6.698382 0.000000 0.000001 0.000000 11.074245 0.148980 -2.593676 8.204039 0.173846 -5.448619 0.000000 0.000000 0.000000 8.226530 0.173966 -5.448151 -3.864571 5.036916 1.518927 0.000000 0.000000 0.000000 8.226530 0.173966 -5.448151 -5.861939 -10.946071 -4.243525 -22.790238 11.203491 -37.079403 -2.568624 -44.597471 -2.588018 0.000000 0.000000 0.000000 8.226530 0.173966 -5.448151 -5.219768 10.572300 2.900656 -41.870685 -28.266562 29.056058 -138.768434 62.896938 140.499846 0.000000 0.000000 0.000000 
